<svg width="106" height="30" viewBox="0 0 106 30" fill="none" xmlns="http://www.w3.org/2000/svg">
<path d="M8.83337 5.25358C8.83337 5.96082 9.11433 6.6391 9.61442 7.1392C10.1145 7.6393 10.7928 7.92025 11.5 7.92025C12.2073 7.92025 12.8856 7.6393 13.3857 7.1392C13.8858 6.6391 14.1667 5.96082 14.1667 5.25358C14.1667 4.54634 13.8858 3.86806 13.3857 3.36796C12.8856 2.86787 12.2073 2.58691 11.5 2.58691C10.7928 2.58691 10.1145 2.86787 9.61442 3.36796C9.11433 3.86806 8.83337 4.54634 8.83337 5.25358Z" stroke="white" stroke-width="2.66667" stroke-linecap="round" stroke-linejoin="round"/>
<path d="M11.5 7.92017V18.5868H16.8333L22.1667 25.2535M11.5 13.2535H18.1667M6.16668 13.9202C5.21134 14.3158 4.36112 14.9282 3.68324 15.7091C3.00537 16.4899 2.51841 17.4177 2.26087 18.4191C2.00333 19.4206 1.98227 20.4682 2.19935 21.4791C2.41643 22.4901 2.86571 23.4367 3.51166 24.2442C4.1576 25.0516 4.98252 25.6977 5.92119 26.1314C6.85986 26.5652 7.88654 26.7746 8.92009 26.7431C9.95363 26.7117 10.9657 26.4403 11.8763 25.9503C12.7869 25.4604 13.571 24.7654 14.1667 23.9202" stroke="white" stroke-width="2.66667" stroke-linecap="round" stroke-linejoin="round"/>
<path d="M36.1666 6.66659C35.4333 6.66659 34.8053 6.40525 34.2826 5.88259C33.76 5.35992 33.4991 4.73237 33.5 3.99992C33.5 3.26659 33.7613 2.63859 34.284 2.11592C34.8066 1.59325 35.4342 1.33237 36.1666 1.33325C36.9 1.33325 37.528 1.59459 38.0506 2.11725C38.5733 2.63992 38.8342 3.26748 38.8333 3.99992C38.8333 4.73325 38.572 5.36125 38.0493 5.88392C37.5266 6.40659 36.8991 6.66748 36.1666 6.66659ZM36.8333 27.9999C36.2777 27.9999 35.8053 27.8053 35.416 27.4159C35.0266 27.0266 34.8324 26.5546 34.8333 25.9999V21.3333H33.5C33.1222 21.3333 32.8053 21.2053 32.5493 20.9493C32.2933 20.6933 32.1657 20.3768 32.1666 19.9999V11.9999C32.1666 10.8888 32.5555 9.94437 33.3333 9.16659C34.1111 8.38881 35.0555 7.99992 36.1666 7.99992C37.2777 7.99992 38.2222 8.38881 39 9.16659C39.7777 9.94437 40.1666 10.8888 40.1666 11.9999C40.9666 12.3333 41.6111 12.8666 42.1 13.5999C42.5889 14.3333 42.8333 15.1333 42.8333 15.9999V19.9999C42.8333 20.3777 42.7053 20.6946 42.4493 20.9506C42.1933 21.2066 41.8769 21.3341 41.5 21.3333H38.8333V25.9999C38.8333 26.5555 38.6386 27.0279 38.2493 27.4173C37.86 27.8066 37.388 28.0008 36.8333 27.9999Z" fill="white"/>
<path d="M68.8334 27.3333C68.1 27.3333 67.472 27.072 66.9494 26.5493C66.4267 26.0267 66.1658 25.3991 66.1667 24.6667C66.1667 23.9333 66.428 23.3053 66.9507 22.7827C67.4734 22.26 68.1009 21.9991 68.8334 22C69.5667 22 70.1947 22.2613 70.7174 22.784C71.24 23.3067 71.5009 23.9342 71.5 24.6667C71.5 25.4 71.2387 26.028 70.716 26.5507C70.1934 27.0733 69.5658 27.3342 68.8334 27.3333ZM55.5 27.3333C54.7667 27.3333 54.1387 27.072 53.616 26.5493C53.0934 26.0267 52.8325 25.3991 52.8334 24.6667C52.8334 23.9333 53.0947 23.3053 53.6174 22.7827C54.14 22.26 54.7676 21.9991 55.5 22C56.2334 22 56.8614 22.2613 57.384 22.784C57.9067 23.3067 58.1676 23.9342 58.1667 24.6667C58.1667 25.4 57.9054 26.028 57.3827 26.5507C56.86 27.0733 56.2325 27.3342 55.5 27.3333ZM60.3 18H67.5V9.56667L60.3 18ZM57.4 20.6667C56.8223 20.6667 56.4165 20.4111 56.1827 19.9C55.9489 19.3889 56.0214 18.9111 56.4 18.4667L69.1 3.56667C69.5445 3.05556 70.0392 2.66667 70.584 2.4C71.1289 2.13333 71.7232 2 72.3667 2C73.6112 2 74.6667 2.43333 75.5334 3.3C76.4 4.16667 76.8334 5.22222 76.8334 6.46667V7.33333H74.1667V6.46667C74.1667 5.95556 73.9943 5.528 73.6494 5.184C73.3045 4.84 72.8769 4.66756 72.3667 4.66667C72.1223 4.66667 71.9058 4.71111 71.7174 4.8C71.5289 4.88889 71.3565 5.02222 71.2 5.2L70.1667 6.36667V18C70.1667 18.7333 69.9058 19.3613 69.384 19.884C68.8623 20.4067 68.2343 20.6676 67.5 20.6667H57.4ZM60.1334 6.86667L61.9667 4.73333C61.7889 4.71111 61.6054 4.69422 61.416 4.68267C61.2267 4.67111 61.0325 4.66578 60.8334 4.66667C60.3889 4.66667 59.9609 4.7 59.5494 4.76667C59.1378 4.83333 58.7214 4.92222 58.3 5.03333L60.1334 6.86667ZM60.3 10.8L53.8 4.3C54.8667 3.54444 55.9889 2.97244 57.1667 2.584C58.3445 2.19556 59.5667 2.00089 60.8334 2C61.8334 2 62.8165 2.12222 63.7827 2.36667C64.7489 2.61111 65.6769 2.97778 66.5667 3.46667L60.3 10.8Z" fill="white"/>
<path d="M103.527 13.3333C101.433 13.3333 99.6067 12.1333 98.7267 10.3867L97.6734 8.16C97.66 8.13333 97.0067 6.66667 95.2867 6.66667C90.46 6.66667 86.8334 20.92 86.8334 24H90.1667L88.1667 26.6667C87.7267 27.2533 87.8467 28.0933 88.4334 28.5333C89.02 28.9733 89.86 28.8533 90.3 28.2667L93.5 24H96.1667V28C96.1667 28.7333 96.7667 29.3333 97.5 29.3333C98.2334 29.3333 98.8334 28.7333 98.8334 28V24.3867C98.8334 24.0933 98.78 23.8133 98.7 23.5333L96.1667 16L96.82 12.3867C97.9105 14.0472 99.578 15.2444 101.5 15.7467V16C101.5 16.3733 101.793 16.6667 102.167 16.6667C102.54 16.6667 102.833 16.3733 102.833 16V15.3333C102.833 14.96 103.127 14.6667 103.5 14.6667C103.873 14.6667 104.167 14.96 104.167 15.3333V28.6667C104.167 29.04 104.46 29.3333 104.833 29.3333C105.207 29.3333 105.5 29.04 105.5 28.6667V15.3333C105.5 14.28 104.673 13.3333 103.527 13.3333ZM94.3 2.54667C94.22 2.8 94.1667 3.05333 94.1667 3.33333C94.1667 4.8 95.3667 6 96.8334 6C98.3 6 99.5 4.8 99.5 3.33333C99.5 1.86667 98.3 0.666667 96.8334 0.666667C96.5534 0.666667 96.3 0.72 96.0467 0.8C95.8467 0.333333 95.38 0 94.8334 0C94.1 0 93.5 0.6 93.5 1.33333C93.5 1.88 93.8334 2.34667 94.3 2.54667Z" fill="white"/>
</svg>
